<svg xmlns="http://www.w3.org/2000/svg" width="1800" height="1260" viewBox="0 0 1800 1260" font-family="Segoe UI, Helvetica, Arial, sans-serif">
<rect width="100%" height="100%" fill="#E4E8EC"/>
<text x="60" y="62" font-size="32" font-weight="800" fill="#12263A">UCYSS Events</text>
<text x="60" y="92" font-size="16" fill="#4B5D6E">Entity relationship diagram · PostgreSQL · the 8 domain tables (Laravel's own personal_access_tokens, sessions, cache and jobs tables are left out)</text>
<polyline points="400,191 520,217" fill="none" stroke="#12263A" stroke-width="2"/>
<text x="415.63717024042876" y="186.38805355209288" font-size="14" font-weight="800" text-anchor="middle" fill="#E4572E">1</text>
<text x="504.36282975957124" y="205.61194644790712" font-size="14" font-weight="800" text-anchor="middle" fill="#E4572E">N</text>
<text x="460" y="193" font-size="12" fill="#4B5D6E" text-anchor="middle">held at</text>
<polyline points="400,611 460,611 460,249 520,249" fill="none" stroke="#12263A" stroke-width="2"/>
<text x="416.0" y="603.0" font-size="14" font-weight="800" text-anchor="middle" fill="#E4572E">1</text>
<text x="504.0" y="241.0" font-size="14" font-weight="800" text-anchor="middle" fill="#E4572E">N</text>
<text x="468" y="531" font-size="12" fill="#4B5D6E" text-anchor="start">organises</text>
<polyline points="860,191 980,217" fill="none" stroke="#12263A" stroke-width="2"/>
<text x="875.6371702404288" y="186.38805355209288" font-size="14" font-weight="800" text-anchor="middle" fill="#E4572E">1</text>
<text x="964.3628297595712" y="205.61194644790712" font-size="14" font-weight="800" text-anchor="middle" fill="#E4572E">N</text>
<text x="900" y="169" font-size="12" fill="#4B5D6E" text-anchor="middle">has tiers</text>
<polyline points="1320,191 1400,217" fill="none" stroke="#12263A" stroke-width="2"/>
<text x="1335.2165450996952" y="187.94537715740094" font-size="14" font-weight="800" text-anchor="middle" fill="#E4572E">1</text>
<text x="1384.7834549003048" y="204.05462284259906" font-size="14" font-weight="800" text-anchor="middle" fill="#E4572E">N</text>
<text x="1360" y="169" font-size="12" fill="#4B5D6E" text-anchor="middle">has seats</text>
<polyline points="1070,360 1070,566 1070,560" fill="none" stroke="#12263A" stroke-width="2"/>
<text x="1062.0" y="376.0" font-size="14" font-weight="800" text-anchor="middle" fill="#E4572E">1</text>
<text x="1062.0" y="576.0" font-size="14" font-weight="800" text-anchor="middle" fill="#E4572E">N</text>
<text x="1080" y="520" font-size="12" fill="#4B5D6E" text-anchor="start">is booked as</text>
<polyline points="400,637 980,637" fill="none" stroke="#12263A" stroke-width="2"/>
<text x="416.0" y="629.0" font-size="14" font-weight="800" text-anchor="middle" fill="#E4572E">1</text>
<text x="964.0" y="629.0" font-size="14" font-weight="800" text-anchor="middle" fill="#E4572E">N</text>
<text x="520" y="627" font-size="12" fill="#4B5D6E" text-anchor="start">books</text>
<polyline points="1680,282 1680,689 1320,689" fill="none" stroke="#12263A" stroke-width="2"/>
<text x="1672.0" y="298.0" font-size="14" font-weight="800" text-anchor="middle" fill="#E4572E">1</text>
<text x="1336.0" y="681.0" font-size="14" font-weight="800" text-anchor="middle" fill="#E4572E">0..1</text>
<text x="1688" y="312" font-size="12" fill="#4B5D6E" text-anchor="start">held by</text>
<polyline points="1320,767 1360,767 1360,857 1400,857" fill="none" stroke="#12263A" stroke-width="2"/>
<text x="1336.0" y="759.0" font-size="14" font-weight="800" text-anchor="middle" fill="#E4572E">1</text>
<text x="1384.0" y="849.0" font-size="14" font-weight="800" text-anchor="middle" fill="#E4572E">N</text>
<text x="1354" y="815" font-size="12" fill="#4B5D6E" text-anchor="end">paid</text>
<polyline points="1150,832 1150,980" fill="none" stroke="#12263A" stroke-width="2"/>
<text x="1142.0" y="848.0" font-size="14" font-weight="800" text-anchor="middle" fill="#E4572E">1</text>
<text x="1142.0" y="964.0" font-size="14" font-weight="800" text-anchor="middle" fill="#E4572E">N</text>
<text x="1162" y="950" font-size="12" fill="#4B5D6E" text-anchor="start">emails</text>
<g id="venues">
<rect x="60" y="140" width="340" height="142" rx="6" fill="#fff" stroke="#12263A" stroke-width="2"/>
<path d="M60,178 V146 Q60,140 66,140 H394 Q400,140 400,146 V178 Z" fill="#12263A"/>
<text x="76" y="165" font-size="18" font-weight="700" fill="#fff">venues</text>
<text x="72" y="196" font-size="11" font-weight="800" fill="#E4572E">PK</text>
<text x="112" y="196" font-size="14" font-weight="700" fill="#12263A">id</text>
<text x="388" y="196" font-size="12" text-anchor="end" fill="#4B5D6E">bigint</text>
<rect x="61" y="204" width="338" height="26" fill="#F3F5F7"/>

<text x="112" y="222" font-size="14" font-weight="400" fill="#12263A">name</text>
<text x="388" y="222" font-size="12" text-anchor="end" fill="#4B5D6E">varchar</text>

<text x="112" y="248" font-size="14" font-weight="400" fill="#12263A">address</text>
<text x="388" y="248" font-size="12" text-anchor="end" fill="#4B5D6E">text</text>
<rect x="61" y="256" width="338" height="26" fill="#F3F5F7"/>

<text x="112" y="274" font-size="14" font-weight="400" fill="#12263A">capacity</text>
<text x="388" y="274" font-size="12" text-anchor="end" fill="#4B5D6E">int > 0</text>
</g>
<g id="users">
<rect x="60" y="560" width="340" height="220" rx="6" fill="#fff" stroke="#12263A" stroke-width="2"/>
<path d="M60,598 V566 Q60,560 66,560 H394 Q400,560 400,566 V598 Z" fill="#12263A"/>
<text x="76" y="585" font-size="18" font-weight="700" fill="#fff">users</text>
<text x="72" y="616" font-size="11" font-weight="800" fill="#E4572E">PK</text>
<text x="112" y="616" font-size="14" font-weight="700" fill="#12263A">id</text>
<text x="388" y="616" font-size="12" text-anchor="end" fill="#4B5D6E">bigint</text>
<rect x="61" y="624" width="338" height="26" fill="#F3F5F7"/>

<text x="112" y="642" font-size="14" font-weight="400" fill="#12263A">name</text>
<text x="388" y="642" font-size="12" text-anchor="end" fill="#4B5D6E">varchar</text>
<text x="72" y="668" font-size="11" font-weight="800" fill="#E4572E">UK</text>
<text x="112" y="668" font-size="14" font-weight="400" fill="#12263A">email</text>
<text x="388" y="668" font-size="12" text-anchor="end" fill="#4B5D6E">varchar</text>
<rect x="61" y="676" width="338" height="26" fill="#F3F5F7"/>

<text x="112" y="694" font-size="14" font-weight="400" fill="#12263A">password</text>
<text x="388" y="694" font-size="12" text-anchor="end" fill="#4B5D6E">varchar (hash)</text>

<text x="112" y="720" font-size="14" font-weight="400" fill="#12263A">role</text>
<text x="388" y="720" font-size="12" text-anchor="end" fill="#4B5D6E">admin | organiser | customer</text>
<rect x="61" y="728" width="338" height="26" fill="#F3F5F7"/>

<text x="112" y="746" font-size="14" font-weight="400" fill="#12263A">email_verified_at</text>
<text x="388" y="746" font-size="12" text-anchor="end" fill="#4B5D6E">timestamp</text>

<text x="112" y="772" font-size="14" font-weight="400" fill="#12263A">created_at</text>
<text x="388" y="772" font-size="12" text-anchor="end" fill="#4B5D6E">timestamp</text>
</g>
<g id="events">
<rect x="520" y="140" width="340" height="376" rx="6" fill="#fff" stroke="#12263A" stroke-width="2"/>
<path d="M520,178 V146 Q520,140 526,140 H854 Q860,140 860,146 V178 Z" fill="#12263A"/>
<text x="536" y="165" font-size="18" font-weight="700" fill="#fff">events</text>
<text x="532" y="196" font-size="11" font-weight="800" fill="#E4572E">PK</text>
<text x="572" y="196" font-size="14" font-weight="700" fill="#12263A">id</text>
<text x="848" y="196" font-size="12" text-anchor="end" fill="#4B5D6E">bigint</text>
<rect x="521" y="204" width="338" height="26" fill="#F3F5F7"/>
<text x="532" y="222" font-size="11" font-weight="800" fill="#E4572E">FK</text>
<text x="572" y="222" font-size="14" font-weight="400" fill="#12263A">venue_id</text>
<text x="848" y="222" font-size="12" text-anchor="end" fill="#4B5D6E">bigint</text>
<text x="532" y="248" font-size="11" font-weight="800" fill="#E4572E">FK</text>
<text x="572" y="248" font-size="14" font-weight="400" fill="#12263A">organiser_id</text>
<text x="848" y="248" font-size="12" text-anchor="end" fill="#4B5D6E">bigint</text>
<rect x="521" y="256" width="338" height="26" fill="#F3F5F7"/>

<text x="572" y="274" font-size="14" font-weight="400" fill="#12263A">title</text>
<text x="848" y="274" font-size="12" text-anchor="end" fill="#4B5D6E">varchar</text>

<text x="572" y="300" font-size="14" font-weight="400" fill="#12263A">description</text>
<text x="848" y="300" font-size="12" text-anchor="end" fill="#4B5D6E">text</text>
<rect x="521" y="308" width="338" height="26" fill="#F3F5F7"/>

<text x="572" y="326" font-size="14" font-weight="400" fill="#12263A">category</text>
<text x="848" y="326" font-size="12" text-anchor="end" fill="#4B5D6E">ctf | bootcamp | ...</text>

<text x="572" y="352" font-size="14" font-weight="400" fill="#12263A">mode</text>
<text x="848" y="352" font-size="12" text-anchor="end" fill="#4B5D6E">physical | online</text>
<rect x="521" y="360" width="338" height="26" fill="#F3F5F7"/>

<text x="572" y="378" font-size="14" font-weight="400" fill="#12263A">meeting_url</text>
<text x="848" y="378" font-size="12" text-anchor="end" fill="#4B5D6E">varchar (private)</text>

<text x="572" y="404" font-size="14" font-weight="400" fill="#12263A">meeting_platform</text>
<text x="848" y="404" font-size="12" text-anchor="end" fill="#4B5D6E">varchar</text>
<rect x="521" y="412" width="338" height="26" fill="#F3F5F7"/>

<text x="572" y="430" font-size="14" font-weight="400" fill="#12263A">seated</text>
<text x="848" y="430" font-size="12" text-anchor="end" fill="#4B5D6E">boolean</text>

<text x="572" y="456" font-size="14" font-weight="400" fill="#12263A">start_at</text>
<text x="848" y="456" font-size="12" text-anchor="end" fill="#4B5D6E">timestamp</text>
<rect x="521" y="464" width="338" height="26" fill="#F3F5F7"/>

<text x="572" y="482" font-size="14" font-weight="400" fill="#12263A">end_at</text>
<text x="848" y="482" font-size="12" text-anchor="end" fill="#4B5D6E">timestamp > start</text>

<text x="572" y="508" font-size="14" font-weight="400" fill="#12263A">status</text>
<text x="848" y="508" font-size="12" text-anchor="end" fill="#4B5D6E">draft | published | ...</text>
</g>
<g id="ticket_types">
<rect x="980" y="140" width="340" height="220" rx="6" fill="#fff" stroke="#12263A" stroke-width="2"/>
<path d="M980,178 V146 Q980,140 986,140 H1314 Q1320,140 1320,146 V178 Z" fill="#12263A"/>
<text x="996" y="165" font-size="18" font-weight="700" fill="#fff">ticket_types</text>
<text x="992" y="196" font-size="11" font-weight="800" fill="#E4572E">PK</text>
<text x="1032" y="196" font-size="14" font-weight="700" fill="#12263A">id</text>
<text x="1308" y="196" font-size="12" text-anchor="end" fill="#4B5D6E">bigint</text>
<rect x="981" y="204" width="338" height="26" fill="#F3F5F7"/>
<text x="992" y="222" font-size="11" font-weight="800" fill="#E4572E">FK</text>
<text x="1032" y="222" font-size="14" font-weight="400" fill="#12263A">event_id</text>
<text x="1308" y="222" font-size="12" text-anchor="end" fill="#4B5D6E">bigint</text>

<text x="1032" y="248" font-size="14" font-weight="400" fill="#12263A">name</text>
<text x="1308" y="248" font-size="12" text-anchor="end" fill="#4B5D6E">varchar</text>
<rect x="981" y="256" width="338" height="26" fill="#F3F5F7"/>

<text x="1032" y="274" font-size="14" font-weight="400" fill="#12263A">price</text>
<text x="1308" y="274" font-size="12" text-anchor="end" fill="#4B5D6E">numeric</text>

<text x="1032" y="300" font-size="14" font-weight="400" fill="#12263A">capacity</text>
<text x="1308" y="300" font-size="12" text-anchor="end" fill="#4B5D6E">int >= 0</text>
<rect x="981" y="308" width="338" height="26" fill="#F3F5F7"/>

<text x="1032" y="326" font-size="14" font-weight="400" fill="#12263A">seats_remaining</text>
<text x="1308" y="326" font-size="12" text-anchor="end" fill="#4B5D6E">0..capacity</text>

<text x="1032" y="352" font-size="14" font-weight="400" fill="#12263A">seats_per_row</text>
<text x="1308" y="352" font-size="12" text-anchor="end" fill="#4B5D6E">smallint</text>
</g>
<g id="seats">
<rect x="1400" y="140" width="340" height="142" rx="6" fill="#fff" stroke="#12263A" stroke-width="2"/>
<path d="M1400,178 V146 Q1400,140 1406,140 H1734 Q1740,140 1740,146 V178 Z" fill="#12263A"/>
<text x="1416" y="165" font-size="18" font-weight="700" fill="#fff">seats</text>
<text x="1412" y="196" font-size="11" font-weight="800" fill="#E4572E">PK</text>
<text x="1452" y="196" font-size="14" font-weight="700" fill="#12263A">id</text>
<text x="1728" y="196" font-size="12" text-anchor="end" fill="#4B5D6E">bigint</text>
<rect x="1401" y="204" width="338" height="26" fill="#F3F5F7"/>
<text x="1412" y="222" font-size="11" font-weight="800" fill="#E4572E">FK</text>
<text x="1452" y="222" font-size="14" font-weight="400" fill="#12263A">ticket_type_id</text>
<text x="1728" y="222" font-size="12" text-anchor="end" fill="#4B5D6E">bigint</text>
<text x="1412" y="248" font-size="11" font-weight="800" fill="#E4572E">UK</text>
<text x="1452" y="248" font-size="14" font-weight="400" fill="#12263A">row_label</text>
<text x="1728" y="248" font-size="12" text-anchor="end" fill="#4B5D6E">varchar</text>
<rect x="1401" y="256" width="338" height="26" fill="#F3F5F7"/>
<text x="1412" y="274" font-size="11" font-weight="800" fill="#E4572E">UK</text>
<text x="1452" y="274" font-size="14" font-weight="400" fill="#12263A">number</text>
<text x="1728" y="274" font-size="12" text-anchor="end" fill="#4B5D6E">int</text>
</g>
<g id="bookings">
<rect x="980" y="560" width="340" height="272" rx="6" fill="#fff" stroke="#12263A" stroke-width="2"/>
<path d="M980,598 V566 Q980,560 986,560 H1314 Q1320,560 1320,566 V598 Z" fill="#12263A"/>
<text x="996" y="585" font-size="18" font-weight="700" fill="#fff">bookings</text>
<text x="992" y="616" font-size="11" font-weight="800" fill="#E4572E">PK</text>
<text x="1032" y="616" font-size="14" font-weight="700" fill="#12263A">id</text>
<text x="1308" y="616" font-size="12" text-anchor="end" fill="#4B5D6E">bigint</text>
<rect x="981" y="624" width="338" height="26" fill="#F3F5F7"/>
<text x="992" y="642" font-size="11" font-weight="800" fill="#E4572E">FK</text>
<text x="1032" y="642" font-size="14" font-weight="400" fill="#12263A">customer_id</text>
<text x="1308" y="642" font-size="12" text-anchor="end" fill="#4B5D6E">bigint</text>
<text x="992" y="668" font-size="11" font-weight="800" fill="#E4572E">FK</text>
<text x="1032" y="668" font-size="14" font-weight="400" fill="#12263A">ticket_type_id</text>
<text x="1308" y="668" font-size="12" text-anchor="end" fill="#4B5D6E">bigint</text>
<rect x="981" y="676" width="338" height="26" fill="#F3F5F7"/>
<text x="992" y="694" font-size="11" font-weight="800" fill="#E4572E">FK, UK</text>
<text x="1032" y="694" font-size="14" font-weight="400" fill="#12263A">seat_id</text>
<text x="1308" y="694" font-size="12" text-anchor="end" fill="#4B5D6E">bigint</text>

<text x="1032" y="720" font-size="14" font-weight="400" fill="#12263A">status</text>
<text x="1308" y="720" font-size="12" text-anchor="end" fill="#4B5D6E">pending | confirmed | ...</text>
<rect x="981" y="728" width="338" height="26" fill="#F3F5F7"/>

<text x="1032" y="746" font-size="14" font-weight="400" fill="#12263A">qr_token</text>
<text x="1308" y="746" font-size="12" text-anchor="end" fill="#4B5D6E">text (HMAC)</text>

<text x="1032" y="772" font-size="14" font-weight="400" fill="#12263A">booked_at</text>
<text x="1308" y="772" font-size="12" text-anchor="end" fill="#4B5D6E">timestamp</text>
<rect x="981" y="780" width="338" height="26" fill="#F3F5F7"/>

<text x="1032" y="798" font-size="14" font-weight="400" fill="#12263A">checked_in_at</text>
<text x="1308" y="798" font-size="12" text-anchor="end" fill="#4B5D6E">timestamp</text>

<text x="1032" y="824" font-size="14" font-weight="400" fill="#12263A">hold_expires_at</text>
<text x="1308" y="824" font-size="12" text-anchor="end" fill="#4B5D6E">timestamp</text>
</g>
<g id="payments">
<rect x="1400" y="780" width="340" height="246" rx="6" fill="#fff" stroke="#12263A" stroke-width="2"/>
<path d="M1400,818 V786 Q1400,780 1406,780 H1734 Q1740,780 1740,786 V818 Z" fill="#12263A"/>
<text x="1416" y="805" font-size="18" font-weight="700" fill="#fff">payments</text>
<text x="1412" y="836" font-size="11" font-weight="800" fill="#E4572E">PK</text>
<text x="1452" y="836" font-size="14" font-weight="700" fill="#12263A">id</text>
<text x="1728" y="836" font-size="12" text-anchor="end" fill="#4B5D6E">bigint</text>
<rect x="1401" y="844" width="338" height="26" fill="#F3F5F7"/>
<text x="1412" y="862" font-size="11" font-weight="800" fill="#E4572E">FK</text>
<text x="1452" y="862" font-size="14" font-weight="400" fill="#12263A">booking_id</text>
<text x="1728" y="862" font-size="12" text-anchor="end" fill="#4B5D6E">bigint</text>

<text x="1452" y="888" font-size="14" font-weight="400" fill="#12263A">amount</text>
<text x="1728" y="888" font-size="12" text-anchor="end" fill="#4B5D6E">numeric</text>
<rect x="1401" y="896" width="338" height="26" fill="#F3F5F7"/>

<text x="1452" y="914" font-size="14" font-weight="400" fill="#12263A">method</text>
<text x="1728" y="914" font-size="12" text-anchor="end" fill="#4B5D6E">card | fpx | ewallet</text>

<text x="1452" y="940" font-size="14" font-weight="400" fill="#12263A">status</text>
<text x="1728" y="940" font-size="12" text-anchor="end" fill="#4B5D6E">paid | failed | refunded</text>
<rect x="1401" y="948" width="338" height="26" fill="#F3F5F7"/>

<text x="1452" y="966" font-size="14" font-weight="400" fill="#12263A">reference</text>
<text x="1728" y="966" font-size="12" text-anchor="end" fill="#4B5D6E">varchar</text>

<text x="1452" y="992" font-size="14" font-weight="400" fill="#12263A">paid_at</text>
<text x="1728" y="992" font-size="12" text-anchor="end" fill="#4B5D6E">timestamp</text>
<rect x="1401" y="1000" width="338" height="26" fill="#F3F5F7"/>

<text x="1452" y="1018" font-size="14" font-weight="400" fill="#12263A">refunded_amount</text>
<text x="1728" y="1018" font-size="12" text-anchor="end" fill="#4B5D6E">numeric</text>
</g>
<g id="notifications">
<rect x="980" y="980" width="340" height="194" rx="6" fill="#fff" stroke="#12263A" stroke-width="2"/>
<path d="M980,1018 V986 Q980,980 986,980 H1314 Q1320,980 1320,986 V1018 Z" fill="#12263A"/>
<text x="996" y="1005" font-size="18" font-weight="700" fill="#fff">notifications</text>
<text x="992" y="1036" font-size="11" font-weight="800" fill="#E4572E">PK</text>
<text x="1032" y="1036" font-size="14" font-weight="700" fill="#12263A">id</text>
<text x="1308" y="1036" font-size="12" text-anchor="end" fill="#4B5D6E">bigint</text>
<rect x="981" y="1044" width="338" height="26" fill="#F3F5F7"/>
<text x="992" y="1062" font-size="11" font-weight="800" fill="#E4572E">FK</text>
<text x="1032" y="1062" font-size="14" font-weight="400" fill="#12263A">booking_id</text>
<text x="1308" y="1062" font-size="12" text-anchor="end" fill="#4B5D6E">bigint</text>

<text x="1032" y="1088" font-size="14" font-weight="400" fill="#12263A">type</text>
<text x="1308" y="1088" font-size="12" text-anchor="end" fill="#4B5D6E">confirmation | reminder | ...</text>
<rect x="981" y="1096" width="338" height="26" fill="#F3F5F7"/>

<text x="1032" y="1114" font-size="14" font-weight="400" fill="#12263A">channel</text>
<text x="1308" y="1114" font-size="12" text-anchor="end" fill="#4B5D6E">email</text>

<text x="1032" y="1140" font-size="14" font-weight="400" fill="#12263A">sent_at</text>
<text x="1308" y="1140" font-size="12" text-anchor="end" fill="#4B5D6E">timestamp</text>
<rect x="981" y="1148" width="338" height="26" fill="#F3F5F7"/>

<text x="1032" y="1166" font-size="14" font-weight="400" fill="#12263A">provider_response</text>
<text x="1308" y="1166" font-size="12" text-anchor="end" fill="#4B5D6E">jsonb</text>
</g>
<g font-size="13" fill="#12263A"><text x="60" y="1210" font-weight="700">Reading the diagram</text>
<text x="60" y="1232"><tspan fill="#E4572E" font-weight="800">PK</tspan> primary key · <tspan fill="#E4572E" font-weight="800">FK</tspan> foreign key · <tspan fill="#E4572E" font-weight="800">UK</tspan> unique · 1 / N: one row on this side relates to many rows on the other · every foreign key is cascade-deleted except events.venue_id (restrict) and bookings.seat_id (set null)</text></g>
</svg>
